<?xml version="1.0" encoding="UTF-8"?>
<svg id="Layer_1" xmlns="http://www.w3.org/2000/svg" version="1.1" viewBox="0 0 300 105.4">
  <!-- Generator: Adobe Illustrator 29.5.0, SVG Export Plug-In . SVG Version: 2.1.0 Build 137)  -->
  <defs>
    <style>
      .st0 {
        fill: #fab461;
      }

      .st1 {
        fill: #00337f;
      }

      .st2 {
        fill: #ff8500;
      }
    </style>
  </defs>
  <polygon class="st0" points="4.4 100.3 75.1 7.8 27.3 7.8 3.9 100.3 4.4 100.3"/>
  <polygon class="st2" points="3.9 100.3 27.3 7.8 3.6 7.8 3.6 100.3 3.9 100.3"/>
  <polygon class="st2" points="75.3 7.8 75.1 7.8 4.4 100.3 5.1 100.3 75.3 62.2 75.3 7.8 75.3 7.8"/>
  <polygon class="st0" points="5.1 100.3 75.3 100.3 75.3 62.2 5.1 100.3"/>
  <g>
    <g>
      <path class="st1" d="M128.8,41.4l-2.4-6.1c-2.5-.1-4.9-.2-7.4-.2s-4.6.1-6.9.2c-1.8,4.4-3.7,9.2-4.6,12.5-.7-.1-1.8-.3-2.8-.3s-1.8.2-2.6.3l6.7-14.8c5.8-13,9.1-20.5,10.5-25.2.6.2,1.2.3,1.9.3s1.2-.1,1.8-.3c2.8,7.9,6.2,15.9,8.3,20.8,2.2,5,6,13.7,8.6,19.3-.9,0-2.9-.3-4.5-.3s-3.2.3-4.3.3l-2.4-6.4ZM119.3,17.6l-5.9,14.1c2,0,4,.2,6,.2s3.5-.1,5.3-.2l-5.4-14.1Z"/>
      <path class="st1" d="M152,10.2c-.2.8-.2,1.8-.4,10.4,2.6,0,2.9,0,4,0l2.1-.2c-.1.5-.2.9-.2,1.4s0,1.1.2,1.7c-2.5-.2-3.1-.2-6.3-.2,0,2.5-.2,8.6-.2,11,0,8.5.3,11,4.1,11s2.3-.4,3.5-1.2c0,.3-.2.9-.2,1.4s.1.9.2,1.3c-1.7.9-4.6,1.7-6.5,1.7s-3.9-.5-5.2-1.5c-2-1.6-2.4-4.2-2.4-6.5s.3-12.6.3-17.2h-1.7c-1.1,0-2,.1-2.7.2,0-.3.2-.7.2-1.3s0-1.2-.2-1.8c.4,0,1.2.2,2,.2h2.5c0-1.6,0-3.9-.1-6.6,3.3-1.5,5.5-3.1,6.6-4l.4.2Z"/>
      <path class="st1" d="M167.1,5.5c1.9,0,2.5-.2,3.7-.3-.6,6.2-.6,15.2-.6,21.2s-.2,15,.5,21.4c-1.1-.1-2.3-.3-3.5-.3s-2,.1-4,.3c.6-4.4.6-21.5.6-22.9,0-10.7-.3-15.2-.7-19.7,1.4.2,2.1.3,4,.3Z"/>
      <path class="st1" d="M187.4,32c3.4-.9,3.9-1.1,4.1-1.6.2-.3.2-.7.2-1.1,0-4.4-2.5-6.1-5.6-6.1s-5.9,2.7-6.2,4.1c-.3,0-.6-.1-.9-.1s-.6,0-.9.1c.2-1.1.3-1.8.3-2.8s0-1,0-1.6c4.4-2.6,6.2-3.2,9.1-3.2,6.2,0,10.5,2.8,10.5,8.6s-.2,7.9-.2,9.8c0,5.6,0,7,2,7s1.1-.2,1.6-.5c-.1.3-.2.7-.2,1s.1.7.2,1c-1.5.6-3.3,1.3-4.9,1.3-3.4,0-4.1-1.7-4.8-3.5-1.8,2.4-4.7,3.9-7.7,3.9-6.7,0-7.9-4.8-7.9-7,0-6.4,3.9-7.4,9.3-8.9l2-.5ZM191.5,33.5c-6.6,1.7-8.9,2.4-8.9,6.5s1.5,4.9,3.8,4.9,5.1-2.5,5.1-5.5v-6Z"/>
      <path class="st1" d="M231.3,40.7c0,2.9.2,5.8.4,7.1-1.3-.1-2.5-.3-3.7-.3s-2.6.2-3.7.3c.5-2.8.7-8.2.7-10.9s0-7.7-.4-9.3c-.7-2.7-2.9-3.8-5.3-3.8s-4.2,1.4-5.1,3.3c-.8,1.7-1,5.6-1,7.6,0,5.2.1,9.1.4,13-.6,0-3.1-.3-3.6-.3-1.2,0-2.4.2-3.6.3.5-7.6.6-8.5.6-15.4s0-8-.5-12.3c.6.1,1.7.3,3.8.3s2.2-.2,3.2-.3c-.3,1.7-.3,1.9-.3,4.8,2.4-3.2,4.5-5.1,8.9-5.1,6.3,0,9.6,3.6,9.6,9.7s-.2,8.3-.2,11.1Z"/>
      <path class="st1" d="M247.8,10.2c-.2.8-.2,1.8-.4,10.4,2.6,0,2.9,0,4,0l2.1-.2c-.1.5-.2.9-.2,1.4s0,1.1.2,1.7c-2.5-.2-3.1-.2-6.3-.2,0,2.5-.2,8.6-.2,11,0,8.5.3,11,4.1,11s2.3-.4,3.5-1.2c0,.3-.2.9-.2,1.4s.1.9.2,1.3c-1.7.9-4.6,1.7-6.5,1.7s-3.9-.5-5.2-1.5c-2-1.6-2.4-4.2-2.4-6.5s.3-12.6.3-17.2h-1.7c-1.1,0-2,.1-2.7.2,0-.3.2-.7.2-1.3s0-1.2-.2-1.8c.4,0,1.2.2,2,.2h2.5c0-1.6,0-3.9-.1-6.6,3.3-1.5,5.5-3.1,6.6-4l.4.2Z"/>
      <path class="st1" d="M258.7,10.9c0-2.1,1.8-4,4-4s4,1.9,4,4-2,4-4,4-4-1.8-4-4ZM259.4,41.5c.1-2.9.2-5,.2-7.1,0-4.1-.2-10.2-.6-14.3,1.2.2,2.2.3,3.9.3s2.6-.2,3.6-.3v2.6c-.2,2.4-.5,7.8-.5,9.8s.1,8.5.2,10.5c0,.7.2,4,.2,4.7-1.1-.2-2.1-.3-3.3-.3s-2.6.2-3.9.3l.3-6.2Z"/>
      <path class="st1" d="M296.4,42.3c-.8,1.2-.9,2.6-1.2,4-3.2,1.7-6.3,2.1-8.5,2.1-9.5,0-14.3-7.1-14.3-14s4.7-14.7,15.1-14.7,5.8.7,8.8,2c-.4.7-1,2.5-1.3,5.4h-1.1c0-.3-1.2-4.8-6.1-4.8s-5,1.6-6.2,3.3c-1.4,2.1-1.8,4.8-1.8,7.8,0,5.6,1.9,11.8,8.6,11.8s4.9-1.5,7-3.4l.9.5Z"/>
    </g>
    <g>
      <path class="st1" d="M130.2,80.2c-3.1-.1-6.2-.2-9.3-.2s-6.6.1-9.8.2v5.8c0,7.4.2,10,.5,13.6-.9,0-2.4-.3-4-.3s-2.7.2-4.1.3c.5-8.7.5-17.4.5-26.2s-.2-8.9-.6-13.3c1.2.1,3.2.3,4.1.3s3.2-.2,4-.3c-.3,3.2-.5,5.6-.5,16.4,2.9.1,5.8.2,8.7.2s7-.1,10.5-.2c0-1.5,0-8.5-.1-9.9,0-1.8,0-2.2-.3-6.5,1.1.1,2.9.3,4.2.3s2.9-.2,4-.3c-.7,6-.8,19.9-.8,25.9s0,9.4.6,13.6c-1.4-.1-2.8-.3-4.2-.3s-2.7.2-3.9.3c0-1,.5-8,.5-10.1v-9.3Z"/>
      <path class="st1" d="M150.2,86c0,2.1,0,10.9,9.1,10.9s6.3-1.4,8.2-3.6l.6.4c-.2.4-.3.8-.5,1.2l-.5,2.5c-.4.5-4.1,2.9-9.7,2.9s-7.2-.6-10.4-3.8c-3.8-3.9-3.9-9-3.9-11,0-9.5,6.6-13.9,13.3-13.9s7.9,0,10.8,5.2c1,1.8,1.8,4.8,1.7,9.2h-18.9ZM162.4,83.2c0-2.8,0-9.3-5.8-9.3s-6.3,7.1-6.4,9.3h12.1Z"/>
      <path class="st1" d="M183.3,83.9c3.4-.9,3.9-1.1,4.1-1.6.2-.3.2-.7.2-1.1,0-4.4-2.5-6.1-5.6-6.1s-5.9,2.7-6.2,4.1c-.3,0-.6-.1-.9-.1s-.6,0-.9.1c.2-1.1.3-1.8.3-2.8s0-1,0-1.6c4.4-2.6,6.2-3.2,9.1-3.2,6.2,0,10.5,2.8,10.5,8.6s-.2,7.9-.2,9.8c0,5.6,0,7,2,7s1.1-.2,1.6-.5c-.1.3-.2.7-.2,1s.1.7.2,1c-1.5.6-3.3,1.3-4.9,1.3-3.4,0-4.1-1.7-4.8-3.5-1.8,2.4-4.7,3.9-7.7,3.9-6.7,0-7.9-4.8-7.9-7,0-6.4,3.9-7.4,9.3-8.9l2-.5ZM187.5,85.3c-6.6,1.7-8.9,2.4-8.9,6.5s1.5,4.9,3.8,4.9,5.1-2.5,5.1-5.5v-6Z"/>
      <path class="st1" d="M204.8,57.3c1.9,0,2.5-.2,3.7-.3-.6,6.2-.6,15.2-.6,21.2s-.2,15,.5,21.4c-1.1-.1-2.3-.3-3.5-.3s-2,.1-4,.3c.6-4.4.6-21.5.6-22.9,0-10.7-.3-15.2-.7-19.7,1.4.2,2.1.3,4,.3Z"/>
      <path class="st1" d="M224.4,62c-.2.8-.2,1.8-.4,10.4,2.6,0,2.9,0,4,0l2.1-.2c-.1.5-.2.9-.2,1.4s0,1.1.2,1.7c-2.5-.2-3.1-.2-6.3-.2,0,2.5-.2,8.6-.2,11,0,8.5.3,11,4.1,11s2.3-.4,3.5-1.2c0,.3-.2.9-.2,1.4s.1.9.2,1.3c-1.7.9-4.6,1.7-6.5,1.7s-3.9-.5-5.2-1.5c-2-1.6-2.4-4.2-2.4-6.5s.3-12.6.3-17.2h-1.7c-1.1,0-2,.1-2.7.2,0-.3.2-.7.2-1.3s0-1.2-.2-1.8c.4,0,1.2.2,2,.2h2.5c0-1.6,0-3.9-.1-6.6,3.3-1.5,5.5-3.1,6.6-4l.4.2Z"/>
      <path class="st1" d="M241.7,58.8c-.4,6.4-.4,10.5-.4,17.6,2.5-3.5,5.7-4.7,9-4.7s6.2,1,8,3.9c1.3,2.1,1.3,4.4,1.3,7s-.1,4.4-.1,6.2c0,3.2.2,8.5.3,10.8-1.2-.2-2.3-.3-3.6-.3s-3,.3-3.9.3c.3-3.2.6-8.1.6-12s0-6.8-.4-8.2c-.6-2.4-2.6-3.6-4.9-3.6s-4.8.9-5.7,3.7c-.5,1.4-.7,2.8-.7,6.7,0,7.5,0,8.1.3,13.3-1.2-.2-2.4-.3-3.6-.3s-2.9.3-3.5.3c.5-7.8.5-10.4.5-22.5v-11.2c0-2.3-.3-5.8-.5-8.9,1.2.2,2.4.3,3.9.3s2.4-.1,3.5-.3v1.8Z"/>
    </g>
  </g>
</svg>